/* XPM */
static char *_f0cf[] = {
/* columns rows colors chars-per-pixel */
"48 48 2 1 ",
"  c None",
". c white",
/* pixels */
"        ................................        ",
"      ....................................      ",
"      ....................................      ",
"     ..................  ..................     ",
"     ..................  ..................     ",
"     ......................................     ",
"     ......................................     ",
"     ......................................     ",
"     ......................................     ",
"     ........   ...........................     ",
"     ......       .........................     ",
"     .....         ........................     ",
"     ....          ........................     ",
"     ...  ....     .................... ...     ",
"     ..  .......   ....................  ..     ",
"     ..  .......   ....................  ..     ",
"     ............  ........................     ",
"     ............  ........................     ",
"     ............ .........................     ",
"     ............ .........................     ",
"     ......................................     ",
"     ...............  ....  ...............     ",
"     ...............   ..   ...............     ",
"     ...............   ..   ...............     ",
"     ......................................     ",
"     ......................................     ",
"     ......................................     ",
"     ................      ................     ",
"     .................    .................     ",
"     ............  ..........  ............     ",
"     ............   ........   ............     ",
"     ............    ......    ............     ",
"     ............              ............     ",
"     ............              ............     ",
"     ............              ............     ",
"     ...........                ...........     ",
"     ..........                  ..........     ",
"     ....                              ....     ",
"     ....                              ....     ",
"     .....                            .....     ",
"     .......      ...      ...      .......     ",
"     ................      ................     ",
"     .................    .................     ",
"     ..................  ..................     ",
"     ......................................     ",
"      ....................................      ",
"      ....................................      ",
"        ................................        "
};
