/* XPM */
static char *_f1eb_1f1ef[] = {
/* columns rows colors chars-per-pixel */
"48 48 2 1 ",
"  c None",
". c white",
/* pixels */
"                                                ",
"                                                ",
"                                                ",
"                                                ",
"                                                ",
"                                                ",
"                                                ",
"   ...   ..    .     .   .....................  ",
" .  .... ..    .   .   ........................ ",
" .   ... ..    .  ..  ..........................",
"   .  .....    ...  .... .......................",
"    ..  ...    ..  ...   .......................",
"...........    .................................",
"                         .......................",
"                         .......................",
"                         .....             .....",
"                         .....   ........  .....",
"..........     ............... ........... .....",
"...........    ............... .................",
"    ...  ..    ....   .  ..... ...    .    .....",
"  ....   ..    . ....  . ...........  ..........",
" ...   . ..    .  ....  ............  .  .......",
"...   .  ..    .    .... ...........  ..........",
"..  ..   ..    .     ...............  ..........",
".............................. .....  .. . .....",
"..............................             .....",
"....................................  ..........",
"....................................  ..........",
"....................................  .  .......",
"....................................  . ........",
"....................................  ..........",
"...................................   ..........",
".................................... ...........",
"................................................",
"................................................",
"................................................",
"................................................",
"................................................",
"................................................",
" .............................................. ",
"  ............................................  ",
"                                                ",
"                                                ",
"                                                ",
"                                                ",
"                                                ",
"                                                ",
"                                                "
};
