/* XPM */
static char *_f1e6_1f1eb[] = {
/* columns rows colors chars-per-pixel */
"48 48 2 1 ",
"  c None",
". c white",
/* pixels */
"                                                ",
"                                                ",
"                                                ",
"                                                ",
"                                                ",
"                                                ",
"                                                ",
"                                                ",
"                                                ",
"                                                ",
"                                                ",
"                                                ",
"                                                ",
"                                                ",
"                                                ",
"                                                ",
"                       ..       .               ",
"             ...    .  ..  .    ...             ",
"             ...    ...... .    ...             ",
"             ...    . .... .    ...             ",
"            ...     ........     ...            ",
"             ..   ............  ...             ",
"            ...  ....      .... ....            ",
"            ...  .......   .... ....            ",
"            ...  .. .....  . .. .....           ",
"            .... ..   ...    .. ....            ",
"             ....   ........   ....             ",
"              ...   ...  ...   ...              ",
"             .. .  ..........  ....             ",
"              ......        ......              ",
"               ......      .......              ",
"              .. .................              ",
"                 ..............                 ",
"                  ............                  ",
"                ................                ",
"                .......  .......                ",
"                                                ",
"                                                ",
"                                                ",
"                                                ",
"                                                ",
"                                                ",
"                                                ",
"                                                ",
"                                                ",
"                                                ",
"                                                ",
"                                                "
};
