/* XPM */
static char *_f1ec_1f1fa[] = {
/* columns rows colors chars-per-pixel */
"48 48 2 1 ",
"  c None",
". c white",
/* pixels */
"                                                ",
"                                                ",
"                                                ",
"                                                ",
"                                                ",
"                                                ",
"                                                ",
"                                                ",
"                                                ",
"                                                ",
"                                                ",
"                                                ",
"                                                ",
"                                                ",
"                      ..                        ",
"                      ...                       ",
"                    ......                      ",
"                    ..  . .                     ",
"                   ...    ..                    ",
"                  ...     ..                    ",
"                 ....    . ..                   ",
"                 .....  .....                   ",
"                 .............                  ",
"                 .. .. . .. ..                  ",
"                 .. . .  .. ..                  ",
"                 ...... ......                  ",
"                 .....                          ",
"                   ...                          ",
"                          ...                   ",
"                  .... ......                   ",
"                   ....  ...                    ",
"                      .....                     ",
"                     .....                      ",
"                      ...                       ",
"                       .                        ",
"                                                ",
"                                                ",
"                                                ",
"                                                ",
"                                                ",
"                                                ",
"                                                ",
"                                                ",
"                                                ",
"                                                ",
"                                                ",
"                                                ",
"                                                "
};
