/* XPM */
static char *_f1f8_1f1ea[] = {
/* columns rows colors chars-per-pixel */
"48 48 2 1 ",
"  c None",
". c white",
/* pixels */
"                                                ",
"                                                ",
"                                                ",
"                                                ",
"                                                ",
"                                                ",
"                                                ",
"              .......                           ",
"              .......                           ",
"              .......                           ",
"              .......                           ",
"              .......                           ",
"              .......                           ",
"              .......                           ",
"              .......                           ",
"              .......                           ",
"              .......                           ",
"              .......                           ",
"              .......                           ",
"              .......                           ",
"              .......                           ",
"................................................",
"................................................",
"................................................",
"................................................",
"................................................",
"................................................",
"              .......                           ",
"              .......                           ",
"              .......                           ",
"              .......                           ",
"              .......                           ",
"              .......                           ",
"              .......                           ",
"              .......                           ",
"              .......                           ",
"              .......                           ",
"              .......                           ",
"              .......                           ",
"              .......                           ",
"              .......                           ",
"                                                ",
"                                                ",
"                                                ",
"                                                ",
"                                                ",
"                                                ",
"                                                "
};
