/* XPM */
static char *_f1ff_1f1f2[] = {
/* columns rows colors chars-per-pixel */
"48 48 2 1 ",
"  c None",
". c white",
/* pixels */
"                                                ",
"                                                ",
"                                                ",
"                                                ",
"                                                ",
"                                                ",
"                                                ",
"                                                ",
"                                                ",
"                                                ",
"                                                ",
"                              .........   ..... ",
"                               ...............  ",
"                                ............    ",
"                                    ......      ",
"                                     ...        ",
"                                     ..         ",
"                                                ",
"                                                ",
"                                                ",
"                                         .......",
"                                         .......",
"                                         .......",
"                                         .......",
"                                         .......",
"                                         .......",
"                                         .......",
"                                         .......",
"                                         .......",
"                                         .......",
"                                         .......",
"                                         .......",
"                                         .......",
"                                         .......",
"                                         .......",
"                                         .......",
"                                         .......",
"                                         .......",
"                                         .......",
"                                         ...... ",
"                                         .....  ",
"                                                ",
"                                                ",
"                                                ",
"                                                ",
"                                                ",
"                                                ",
"                                                "
};
