/* XPM */
static char *_f1f9_1f1f1[] = {
/* columns rows colors chars-per-pixel */
"48 48 2 1 ",
"  c None",
". c white",
/* pixels */
"                                                ",
"                                                ",
"                                                ",
"                                                ",
"                                                ",
"                                                ",
"                                                ",
"                                                ",
"  .                                             ",
"    ..                                          ",
"     ...                                        ",
"      ...                                       ",
"        ...                                     ",
"        .....                                   ",
"          ....                                  ",
"           .....                                ",
"            ......                              ",
"              ......                            ",
"               .......                          ",
"     ..         ........                        ",
"     ..   ..      ........                      ",
"     .......      .........                     ",
"      .....         .........                   ",
"    .......          ..........                 ",
"  ..........         ..........                 ",
"      .......       .........                   ",
"       ..   .     .........                     ",
"       .          ........                      ",
"       .        ........                        ",
"               .......                          ",
"              ......                            ",
"            ......                              ",
"           .....                                ",
"          ....                                  ",
"        .....                                   ",
"        ...                                     ",
"      ...                                       ",
"     ...                                        ",
"    ..                                          ",
"  .                                             ",
"                                                ",
"                                                ",
"                                                ",
"                                                ",
"                                                ",
"                                                ",
"                                                ",
"                                                "
};
