/* XPM */
static char *_f31b[] = {
/* columns rows colors chars-per-pixel */
"48 48 2 1 ",
"  c None",
". c white",
/* pixels */
"                          ....                  ",
"                           .......              ",
"                            ........            ",
"                            .........           ",
"                             ..........         ",
"                              ..........        ",
"                              ...........       ",
"                               ...........      ",
"                               ............     ",
"                                ............    ",
"                                ............    ",
"                                .............   ",
"                                 .............  ",
"                                 .............  ",
"                                 .............. ",
"                                 .............. ",
"                                 ...    ....... ",
"                                 ..      ...... ",
"                                ...      .......",
"                               ....      .......",
"                              .....      .......",
"                            .......      .......",
"                           ..........  .........",
"                           .....................",
"                           .....................",
"                           .....................",
"                            ....................",
"                             ...................",
"                              ..................",
"                              ..................",
"                             .................. ",
"                                ............... ",
"                                       ........ ",
"                                      ......... ",
"                                    ..........  ",
"                         .....................  ",
"                        .....................   ",
"                      ......................    ",
"                     .......................    ",
"                   ........................     ",
"                 .........................      ",
"              ...........................       ",
"         ...............................        ",
"         ..............................         ",
"           ..........................           ",
"            ........................            ",
"              ....................              ",
"                  ............                  "
};
