/* XPM */
static char *_f3f4_e0067_e0062_e0065_e006e_e0067_e007f[] = {
/* columns rows colors chars-per-pixel */
"48 48 2 1 ",
"  c None",
". c white",
/* pixels */
"                                                ",
"                                                ",
"                                                ",
"                                                ",
"                                                ",
"                                                ",
"                                                ",
"  ..................        ..................  ",
" ...................        ................... ",
"....................        ....................",
"....................        ....................",
"....................        ....................",
"....................        ....................",
"....................        ....................",
"....................        ....................",
"....................        ....................",
"....................        ....................",
"....................        ....................",
"....................        ....................",
"....................        ....................",
"                                                ",
"                                                ",
"                                                ",
"                                                ",
"                                                ",
"                                                ",
"                                                ",
"                                                ",
"....................        ....................",
"....................        ....................",
"....................        ....................",
"....................        ....................",
"....................        ....................",
"....................        ....................",
"....................        ....................",
"....................        ....................",
"....................        ....................",
"....................        ....................",
"....................        ....................",
" ...................        ................... ",
"  ..................        ..................  ",
"                                                ",
"                                                ",
"                                                ",
"                                                ",
"                                                ",
"                                                ",
"                                                "
};
