/* XPM */
static char *_f3f4_200d_2620_fe0f[] = {
/* columns rows colors chars-per-pixel */
"48 48 2 1 ",
"  c None",
". c white",
/* pixels */
"                                                ",
"                                                ",
"                                                ",
"                                                ",
"                                                ",
"                                                ",
"                                                ",
"                                                ",
"                                                ",
"                      ....                      ",
"                    ........                    ",
"                  ............                  ",
"                 ..............                 ",
"                 ..............                 ",
"                ................                ",
"                ....  ....  ....                ",
"                ...    ..    ...                ",
"                ...   ....   ...                ",
"                .... ...... ....                ",
"                ................                ",
"                  .....  .....                  ",
"                  ............                  ",
"                   ..........                   ",
"          ..       ..  ..  ..       ..          ",
"         ...       ..  ..  ..       ...         ",
"         .....                    .....         ",
"        ........                ........        ",
"        ............        ............        ",
"              ........    ........              ",
"                 ..............                 ",
"                   ..........                   ",
"                  ............                  ",
"               ........  ........               ",
"         ...........        ...........         ",
"        ..........            ..........        ",
"         ......                  ......         ",
"         ...                        ...         ",
"         ...                        ...         ",
"                                                ",
"                                                ",
"                                                ",
"                                                ",
"                                                ",
"                                                ",
"                                                ",
"                                                ",
"                                                ",
"                                                "
};
