/* XPM */
static char *_f3f4_e0067_e0062_e0073_e0063_e0074_e007f[] = {
/* columns rows colors chars-per-pixel */
"48 48 2 1 ",
"  c None",
". c white",
/* pixels */
"                                                ",
"                                                ",
"                                                ",
"                                                ",
"                                                ",
"                                                ",
"                                                ",
"  ....                                    ....  ",
" .......                                ....... ",
".........                              .........",
"..........                            ..........",
"............                        ............",
" .............                    ............. ",
"  ............                    ............  ",
"    ............                ............    ",
"      ............            ............      ",
"       ............          ............       ",
"        ............        ............        ",
"          ............    ............          ",
"           ............  ............           ",
"            ........................            ",
"              ....................              ",
"                ................                ",
"                ................                ",
"                ................                ",
"                ................                ",
"              ....................              ",
"            ........................            ",
"           ............  ............           ",
"          ............    ............          ",
"        ............        ............        ",
"       ............          ............       ",
"      ............            ............      ",
"    ............                ............    ",
"  ............                    ............  ",
" .............                    ............. ",
"............                        ............",
"..........                            ..........",
".........                              .........",
" .......                                ....... ",
"  ....                                    ....  ",
"                                                ",
"                                                ",
"                                                ",
"                                                ",
"                                                ",
"                                                ",
"                                                "
};
