/* XPM */
static char *_f441_200d_1f5e8[] = {
/* columns rows colors chars-per-pixel */
"48 48 2 1 ",
"  c None",
". c white",
/* pixels */
"                                                ",
"                                                ",
"                                                ",
"                                                ",
"                                                ",
"                                                ",
"                                                ",
"                                                ",
"                                                ",
"                     ......                     ",
"                  ............                  ",
"                 ..............                 ",
"                ................                ",
"               ..................               ",
"              ....................              ",
"             ........      ........             ",
"             .......        .......             ",
"             ......          ......             ",
"            ......            ......            ",
"            ......            ......            ",
"            .....              .....            ",
"            .....              .....            ",
"            ......            ......            ",
"            ......            ......            ",
"            ......            ......            ",
"             ......          ......             ",
"             .......        .......             ",
"             .........    .........             ",
"              ....................              ",
"               ..................               ",
"                ................                ",
"                 ..............                 ",
"                   ..........                   ",
"                                                ",
"                                                ",
"                                                ",
"                                                ",
"                                                ",
"                                                ",
"                                                ",
"                                                ",
"                                                ",
"                                                ",
"                                                ",
"                                                ",
"                                                ",
"                                                ",
"                                                "
};
