/* XPM */
static char *_f468_1f3ff_200d_1f33e[] = {
/* columns rows colors chars-per-pixel */
"48 48 2 1 ",
"  c None",
". c white",
/* pixels */
"                                                ",
"                                                ",
"                                                ",
"                                                ",
"                                                ",
"                                                ",
"                                                ",
"                                                ",
"                                                ",
"                                                ",
"                                                ",
"                                                ",
"                                                ",
"                                                ",
"                                                ",
"                                                ",
"                                                ",
"                                                ",
"                                                ",
"                                                ",
"                                                ",
"                                                ",
"                                                ",
"                                                ",
"                                                ",
"                                                ",
"                                                ",
"                                                ",
"                                                ",
"                                                ",
"                                                ",
"                                                ",
"                                                ",
"                                                ",
"                                                ",
"                                                ",
"                                                ",
"                .                   .     .     ",
"              ...    ..             .    ....   ",
"             ....    ..             .    .....  ",
"            .....    ...           ..    ...... ",
"           ......    ...          ...    ...... ",
"           ......    ....         ...    .......",
"           ......    .....      .....    .......",
"           ......    .......   ......    .......",
"           ......    ................    .......",
"           ......     ...............    .......",
"           ......                        ......."
};
