/* XPM */
static char *_f469_1f3fc_200d_2695_fe0f[] = {
/* columns rows colors chars-per-pixel */
"48 48 2 1 ",
"  c None",
". c white",
/* pixels */
"                                                ",
"                                                ",
"                                                ",
"                    ........                    ",
"                  ............                  ",
"                ................                ",
"              ....................              ",
"              ....................              ",
"            ........................            ",
"            ........................            ",
"           ..........................           ",
"           ..........................           ",
"          ............................          ",
"          ............................          ",
"         .............................          ",
"         ..............................         ",
"         ..............................         ",
"         ..............................         ",
"         ..............................         ",
"         .......... ........ ..........         ",
"         ..........  ......  ..........         ",
"         ..........  ......  ..........         ",
"         .......... ........ ..........         ",
"         ..............................         ",
"         ..............................         ",
"         ..............  ..............         ",
"         ..............................         ",
"         ............ .... ............         ",
"         ...........       ............         ",
"         .............    .............         ",
"         ..............................         ",
"         ..............................         ",
"          ......   ..........   ......          ",
"          .....    ..........    .....          ",
"           ...     ..........     ...           ",
"                   ..........                   ",
"                    ........                    ",
"                     ......                     ",
"                      ....                      ",
"          .....       ....                      ",
"         .......       ..                       ",
"         ........                               ",
"         ........                               ",
"         ........                               ",
"         ........           ...      ..         ",
"         ........           ...      ..         ",
"          ......            ..       ..         ",
"                                                "
};
