/* XPM */
static char *_f469_200d_1f467_200d_1f466[] = {
/* columns rows colors chars-per-pixel */
"48 48 2 1 ",
"  c None",
". c white",
/* pixels */
"                   .........                    ",
"                 ................               ",
"               ....................             ",
"              ......................            ",
"             .......................            ",
"             ........................           ",
"            .........................           ",
"            .........................           ",
"           ..........................           ",
"           ..........................           ",
"           ..........................           ",
"           ..........................           ",
"           ..........................           ",
"           .......  ........  .......           ",
"           .......   ......   .......           ",
"           .......   ......   .......           ",
"           .......   ......   .......           ",
"           ..........................           ",
"           ..........................           ",
"           ..........................           ",
"           ..........................           ",
"           ..........................           ",
"           ..........................           ",
"           ..........................           ",
"           .........        .........           ",
"        ..............    ..............        ",
"      ....................................      ",
"     ......................................     ",
"    ........................................    ",
"   ..........................................   ",
"   ..........................................   ",
"   ..........................................   ",
"  ................... .... ..................   ",
"  ...................     ...................   ",
"  ......  ....  ......     .....  ....  .....   ",
"  ......   ..   ......     .....   ..   .....   ",
"  ......  ....  ......     .....  ....  .....   ",
"  ....................     ..................   ",
"  ....................      ................    ",
"  ....................      ................    ",
" .........    .........      .....    .....     ",
" ......................       ............      ",
" ......................        ..........       ",
"  ....................          ........        ",
"          ....             ...................  ",
"          ....            ....................  ",
"                        ........................",
"                        ........................"
};
