/* XPM */
static char *_f468_200d_1f527[] = {
/* columns rows colors chars-per-pixel */
"48 48 2 1 ",
"  c None",
". c white",
/* pixels */
"                                                ",
"                                                ",
"                                                ",
"                                                ",
"                                                ",
"                                                ",
"                                                ",
"                                                ",
"                                                ",
"                                                ",
"                                                ",
"                                                ",
"                 .........................      ",
"                 .........      .........       ",
"                 .......  ........ ......       ",
"                 .... ....................      ",
"                 .  ..................  ..      ",
"                 .........................      ",
"                ..........................      ",
"                .......  .........  .......     ",
"                .......  ........   .......     ",
"                .......  ........   .......     ",
"                .................. ........     ",
"                ...........................     ",
"                 .........................      ",
"                  .........    ..........       ",
"                  .......................       ",
"                  ......................        ",
"                   .....................        ",
"                   .....  ....... ......        ",
"                    ....          .....         ",
"                    ...................         ",
"                     .................          ",
"                      ...............           ",
"                       .............            ",
"                       ............             ",
"                       ............             ",
"                .     ...............     .     ",
"              ...    ................    ....   ",
"             ....    ................    .....  ",
"            .....    ................    ...... ",
"           ......                        ...... ",
"           ......                        .......",
"           ......                  ....  .......",
"           ......                 ...... .......",
"           ......                 ...... .......",
"           ......                  ....  .......",
"           ......                        ......."
};
