/* XPM */
static char *_f469_200d_1f3eb[] = {
/* columns rows colors chars-per-pixel */
"48 48 2 1 ",
"  c None",
". c white",
/* pixels */
"  ....................................          ",
" ......................................         ",
"........................................        ",
"........................................        ",
"........................................        ",
"........................................        ",
"........................................        ",
"........................................        ",
"........................................        ",
"........................................        ",
".........................................       ",
"..........................................      ",
"..........................................      ",
"...........................................     ",
"...........................................     ",
"...........................................     ",
"............................................    ",
"............................................    ",
"............................................    ",
"............................................    ",
"............................................    ",
"........................  .......  .........    ",
"........................  .......  .........    ",
"........................  .......  .........    ",
"............................................    ",
"............................................    ",
"............................   .............    ",
"............................................    ",
"............................................    ",
"..........................       ...........    ",
"..........................      ............    ",
"............................................    ",
"............................................    ",
"............................................    ",
"...........................................     ",
"...........................................     ",
".................    ................           ",
"................     ................           ",
" .............        ...............           ",
"  ............        ....... .......           ",
"                      ......  ......            ",
"                       ...  ... ....            ",
"                       ..   ...   ..            ",
"                       .          .             ",
"                                                ",
"                            ...                 ",
"                            ...                 ",
"                                                "
};
