/* XPM */
static char *_f468_200d_2764_fe0f_200d_1f468[] = {
/* columns rows colors chars-per-pixel */
"48 48 2 1 ",
"  c None",
". c white",
/* pixels */
".........                              .........",
"............                        ............",
".............                      .............",
".............                      .............",
".............                      .............",
".............                      .............",
".............                      .............",
".............                      .............",
".............                      .............",
".............                      .............",
"..............                    ..............",
"..............                    ..............",
"...............                  ...............",
"................                ................",
"................                ................",
".................              .................",
"..................            ..................",
"...................          ...................",
".......  ..........          ..........  .......",
".......  .........            .........  .......",
".......  .........            .........  .......",
"..................            ..................",
".................              .................",
"................                ................",
"...............                  ...............",
".   ...........                  ...........   .",
"..............                    ..............",
"..............                    ..............",
"..............                    ..............",
"       ......                      ......       ",
"       .....                        .....       ",
".   ........                        ........   .",
"..........                            ..........",
".........                              .........",
".......                                  .......",
".......                                  .......",
"..................            ..................",
"...................          ...................",
"....................        ....................",
"....................        ....................",
"....................        ....................",
"....................       .....................",
"....................        ....................",
".............  .....        .....  .............",
".............  .....        .....  .............",
".............  .....        .....  .............",
".............  .....        .....  .............",
".............  .....        .....  ............."
};
