/* XPM */
static char *_f475_1f3fc[] = {
/* columns rows colors chars-per-pixel */
"48 48 2 1 ",
"  c None",
". c white",
/* pixels */
"                                                ",
"                                                ",
"                                                ",
"                                                ",
"                .....      ......               ",
"            ........................            ",
"          ............................          ",
"         ..............................         ",
"        ................................        ",
"       ..................................       ",
"      ....................................      ",
"      ....................................      ",
"     ......................................     ",
"     ......................................     ",
"    ........................................    ",
"    ........................................    ",
"    ........................................    ",
"   ..........................................   ",
"   ..........................................   ",
"   ..........................................   ",
"   ..........................................   ",
"   ..........................................   ",
"   ..........................................   ",
"   ..........................................   ",
"    ........................................    ",
"    ........................................    ",
"    ........................................    ",
"    ............  ............  ............    ",
"    ............   ..........   ............    ",
"    ............   ..........   ............    ",
"    ............   ..........   ............    ",
"    ............  ............  ............    ",
"    ........................................    ",
"      ....................................      ",
"       ..................................       ",
"       ...............    ...............       ",
"        ..............    ..............        ",
"        ................................        ",
"         ..............................         ",
"         ..........          ..........         ",
"          .........          .........          ",
"          ..........        ..........          ",
"           ..........................           ",
"            ........................            ",
"             ......................             ",
"              ....................              ",
"                ................                ",
"                  ............                  "
};
