/* XPM */
static char *_f47c_1f3fd[] = {
/* columns rows colors chars-per-pixel */
"48 48 2 1 ",
"  c None",
". c white",
/* pixels */
"                 ..............                 ",
"              ....................              ",
"            ........................            ",
"          ........            ........          ",
"         .......                .......         ",
"        ......                    ......        ",
"        .....                      .....        ",
"        .....                      .....        ",
"        .....                      .....        ",
"        ......                    ......        ",
"        ........                ........        ",
"         ...........        ...........         ",
"          ............................          ",
"            ........................            ",
"              ....................              ",
"                  ............                  ",
"                                                ",
"                    ..                          ",
"                   ......                       ",
"                   .........                    ",
"                  ...........                   ",
"                 ..............                 ",
"                ................                ",
"               ...................              ",
"              .....................             ",
"             ......  ......  .......            ",
"            .......  ......  ........           ",
"           ........  ......  ........           ",
"          .........  ......  .........          ",
"          .........  ......  .........          ",
"         ..........  ......  ..........         ",
"         ..............................         ",
"         ..............................         ",
"         ..............................         ",
"         ..............................         ",
"         ..............................         ",
" ......  ..........          ..........  ...... ",
"....... ............        ................... ",
"......................    ......................",
"................................................",
"................................................",
"................................................",
"................................................",
" .............................................. ",
"  ....................    ....................  ",
"  ....................    ....................  ",
"    ................        ................    ",
"      ............            ............      "
};
