/* XPM */
static char *_f4a1[] = {
/* columns rows colors chars-per-pixel */
"48 48 2 1 ",
"  c None",
". c white",
/* pixels */
"                    ........                    ",
"                 ..............                 ",
"                .................               ",
"              ....................              ",
"             ......................             ",
"            ........................            ",
"           ..........................           ",
"           ..........................           ",
"          ............................          ",
"          ............................          ",
"         ..............................         ",
"         ..............................         ",
"         ..............................         ",
"         ..............................         ",
"         ..............................         ",
"         ..............................         ",
"         ..............................         ",
"         ..............................         ",
"         ..............................         ",
"          ............................          ",
"          ............................          ",
"          ............................          ",
"           ..........................           ",
"            ........................            ",
"            .......................             ",
"             ......................             ",
"              ....................              ",
"              ....................              ",
"               ..................               ",
"               ..................               ",
"               ..................               ",
"               ..................               ",
"               ..................               ",
"               ..................               ",
"               ..................               ",
"               .................                ",
"               .................                ",
"                .................               ",
"                .................               ",
"                .................               ",
"               .................                ",
"               .................                ",
"               .................                ",
"                ................                ",
"                   ..........                   ",
"                    ........                    ",
"                     ......                     ",
"                                                "
};
