/* XPM */
static char *_f523[] = {
/* columns rows colors chars-per-pixel */
"48 48 2 1 ",
"  c None",
". c white",
/* pixels */
"                                                ",
"                                                ",
"                                                ",
"                                                ",
"    ...................             ..          ",
"    ...................             .....       ",
"    ...................             .......     ",
"    ...................             .......     ",
"                                    .......     ",
"                                    .......     ",
"                                    ...  .      ",
"                                    ...         ",
"    ...................             ...         ",
"    ...................             ...         ",
"    ...................             ...         ",
"    ...................       .........         ",
"           .....             ..........         ",
"           .....            ...........         ",
"           .....            ...........         ",
"           .....            ...........         ",
"           .....            ..........          ",
"           .....            .........           ",
"           .....             ......             ",
"                                                ",
"                                                ",
"          ....              ....      ..        ",
"        ........           .......   ....       ",
"        .........          .......   ....       ",
"       ...........        ........  ....        ",
"       .....  ....        ...  .... ....        ",
"       ..... .....        .............         ",
"       ...........        .............         ",
"        .........          ...........          ",
"        ........            ..........          ",
"      ..........                 ....           ",
"      ..........  ....          .....           ",
"     ..... ...........          ..........      ",
"     .....  ..........         ...........      ",
"     ....    ........          ............     ",
"     ....    .......          ......... ...     ",
"     .....  .........         .... ...  ...     ",
"     .................       ....  ........     ",
"      ................       ....  ........     ",
"       .........  ....       ...    ......      ",
"         ....      ..         ..      ..        ",
"                                                ",
"                                                ",
"                                                "
};
