/* XPM */
static char *_f64e_1f3fd_200d_2642_fe0f[] = {
/* columns rows colors chars-per-pixel */
"48 48 2 1 ",
"  c None",
". c white",
/* pixels */
"                                                ",
"                                                ",
"                                                ",
"                                                ",
"                                                ",
"                                                ",
"                                                ",
"                                                ",
"                                                ",
"                                                ",
"                                                ",
"                .                               ",
"               ...                              ",
"              ......  .   ..                    ",
"              ..........  ........              ",
"             .....................              ",
"         ..  ......................  ..         ",
"         ..  .....  ........  .....  ..         ",
"         ........   ........   ........         ",
"         ........   ........   ........         ",
"          .......   ........   .......          ",
"          ............................          ",
"            ........................            ",
"            ........................            ",
"            ........................            ",
"            ..........    ..........            ",
"            ........................            ",
"             ......................             ",
"             ......................             ",
"              ....................              ",
"              .........  .........              ",
"               ........  ........               ",
"                ................                ",
"                  ............                  ",
"                    ........                    ",
"                    ........                    ",
"                    ........                    ",
"                    ........                    ",
"                    ........                    ",
"                    ........                    ",
"                     ......                     ",
"                                                ",
"                                                ",
"                                                ",
"                                                ",
"                                                ",
"                                                ",
"                                                "
};
