/* XPM */
static char *_f6f5[] = {
/* columns rows colors chars-per-pixel */
"48 48 2 1 ",
"  c None",
". c white",
/* pixels */
"                                                ",
"                                                ",
"                                                ",
"                                                ",
"                                                ",
"                                                ",
"                                                ",
"                                                ",
"                                                ",
"                                                ",
"                                                ",
"                                                ",
"                                                ",
"                                                ",
"                                                ",
"                                                ",
"                                                ",
"                                                ",
"                                                ",
"         ..                                     ",
"         ..                                     ",
"                                                ",
"                                                ",
"                                                ",
"                                                ",
"                                                ",
"                                                ",
"                                                ",
"                                                ",
"                                         ...    ",
"                                         ...    ",
"                                           .    ",
"                                                ",
"                                                ",
"                                                ",
"                                                ",
"                                                ",
"                                                ",
"                                                ",
"     ...                                        ",
"    ......                                      ",
"    .......                         .......     ",
"    .......                         .......     ",
"    ......                          ......      ",
"     .....                           .....      ",
"                                                ",
"                                                ",
"                                                "
};
