/* XPM */
static char *_f9d7_1f3ff[] = {
/* columns rows colors chars-per-pixel */
"48 48 2 1 ",
"  c None",
". c white",
/* pixels */
"  ..................                            ",
" .........................                      ",
"...........................                     ",
"........      .............                     ",
"........      ............                      ",
"........      ............                      ",
".........   ..............                      ",
".........................                       ",
".........................                       ",
".........................                       ",
"........................                        ",
"........................                        ",
"..............      ...                         ",
"..............     ....                         ",
"..............   .......                        ",
"........................                        ",
"..........................                    . ",
"...........................                     ",
"............................                    ",
"............................                    ",
".............................                   ",
"..............................                  ",
"..............................                  ",
".............................                   ",
"...........             .....                   ",
"...........            ......                   ",
"............         .......                    ",
"............        ........                    ",
".............     ..........                    ",
"..............   ..........                     ",
"...........................                     ",
"...........................                     ",
"...........................                     ",
"...........................                     ",
"..........................                      ",
"..........................                      ",
"..........................                      ",
"...........................                     ",
"...........................                     ",
"....           ............                     ",
"....          ..............                    ",
"....          ..................                ",
".....       ....................                ",
"......     ....................    .            ",
".......  ....................      ...          ",
"...........................       .....         ",
" ..........................      .......        ",
"  ......................................        "
};
