/* XPM */
static char *_31a[] = {
/* columns rows colors chars-per-pixel */
"48 48 2 1 ",
"  c None",
". c white",
/* pixels */
"                                                ",
"                                                ",
"                                                ",
"                                                ",
"                                                ",
"                                                ",
"                                                ",
"                                                ",
"                    ........                    ",
"                 ..............                 ",
"               ..................               ",
"              ....................              ",
"            ........................            ",
"            ........................            ",
"          .............  .............          ",
"          .............  .............          ",
"         ..............  ..............         ",
"         ..............  ..............         ",
"         ..............  ..............         ",
"        ...............  ...............        ",
"        ...............  ...............        ",
"        ...............  .................      ",
"        ...............  ..................     ",
"        ...............   .................     ",
"        ...............    ................     ",
"        ................     ..............     ",
"        ..................    ............      ",
"        ....................    ........        ",
"        .....................   ........        ",
"         ..............................         ",
"         ..............................         ",
"         ..............................         ",
"          ............................          ",
"          ............................          ",
"            ........................            ",
"            ........................            ",
"              ....................              ",
"               ..................               ",
"                 ..............                 ",
"                    ........                    ",
"                                                ",
"                                                ",
"                                                ",
"                                                ",
"                                                ",
"                                                ",
"                                                ",
"                                                "
};
