/* XPM */
static char *_5ab[] = {
/* columns rows colors chars-per-pixel */
"48 48 2 1 ",
"  c None",
". c white",
/* pixels */
"                                                ",
"                                                ",
"                                                ",
"                                                ",
"                                                ",
"                                                ",
"                                                ",
"                                                ",
"                                                ",
"                                                ",
"                                                ",
"                                                ",
"                                                ",
"                                                ",
"                                                ",
"               ..................               ",
"               ..................               ",
"               ..................               ",
"               ..................               ",
"               ..................               ",
"               ..................               ",
"               ..................               ",
"               ..................               ",
"               ..................               ",
"               ..................               ",
"               ..................               ",
"               ..................               ",
"               ..................               ",
"               ..................               ",
"               ..................               ",
"               ..................               ",
"               ..................               ",
"               ..................               ",
"                                                ",
"                                                ",
"                                                ",
"                                                ",
"                                                ",
"                                                ",
"                                                ",
"                                                ",
"                                                ",
"                                                ",
"                                                ",
"                                                ",
"                                                ",
"                                                ",
"                                                "
};
