/* XPM */
static char *_6f3[] = {
/* columns rows colors chars-per-pixel */
"48 48 2 1 ",
"  c None",
". c white",
/* pixels */
"                                                ",
"                                                ",
"                                                ",
"                                                ",
"                                                ",
"                                                ",
"                                                ",
"                                                ",
"                                                ",
"                                                ",
"                                                ",
"                                                ",
"             .                                  ",
"             ...                                ",
"             ...                                ",
"             ...                                ",
"             ...                                ",
"             ...                                ",
"             ...                                ",
"             ...                                ",
"             ...                                ",
"             ...                                ",
"             ...                                ",
"             ...                                ",
"             ...                                ",
"             ...                                ",
"             ...                                ",
"             ...                                ",
"             ...................                ",
"           .........................            ",
"         ..............................         ",
"       ..................................       ",
"     .....................................      ",
"    ........................................    ",
"   ..........................................   ",
"  ...........................................   ",
"  ............................................  ",
" ........... ...     .......................... ",
" .........   ...        ....................... ",
"........     ...         ...................... ",
"........      ..         .......................",
"........                 .......................",
".........               ........................",
"............          ..........................",
"................................................",
" .............................................. ",
"  ............................................  ",
"  ............................................  "
};
